HIERARCHY
ROOT Hips
{
	OFFSET 0.00000 0.00000 0.00000
	CHANNELS 6 Xposition Yposition Zposition Zrotation Yrotation Xrotation 
	JOINT LHipJoint
	{
		OFFSET 0 0 0
		CHANNELS 3 Zrotation Yrotation Xrotation
		JOINT LeftHip
		{
			OFFSET 1.59715 -1.91394 0.36268
			CHANNELS 3 Zrotation Yrotation Xrotation
			JOINT LeftKnee
			{
				OFFSET 2.53886 -6.97546 0.00000
				CHANNELS 3 Zrotation Yrotation Xrotation
				JOINT LeftAnkle
				{
					OFFSET 2.77084 -7.61284 0.00000
					CHANNELS 3 Zrotation Yrotation Xrotation
					JOINT LeftToe
					{
						OFFSET 0.19855 -0.54550 2.06057
						CHANNELS 3 Zrotation Yrotation Xrotation
						End Site
						{
							OFFSET 0.00000 -0.00000 1.07182
						}
					}
				}
			}
		}
	}
	JOINT RHipJoint
	{
		OFFSET 0 0 0
		CHANNELS 3 Zrotation Yrotation Xrotation
		JOINT RightHip
		{
			OFFSET -1.71086 -1.91394 0.36268
			CHANNELS 3 Zrotation Yrotation Xrotation
			JOINT RightKnee
			{
				OFFSET -2.59448 -7.12828 0.00000
				CHANNELS 3 Zrotation Yrotation Xrotation
				JOINT RightAnkle
				{
					OFFSET -2.80237 -7.69945 0.00000
					CHANNELS 3 Zrotation Yrotation Xrotation
					JOINT RightToe
					{
						OFFSET -0.18280 -0.50224 2.06614
						CHANNELS 3 Zrotation Yrotation Xrotation
						End Site
						{
							OFFSET -0.00000 -0.00000 1.07055
						}
					}
				}
			}
		}
	}
	JOINT lowerback
	{
		OFFSET 0 0 0
		CHANNELS 3 Zrotation Yrotation Xrotation
		JOINT Chest
		{
			OFFSET 0.04838 1.91536 -0.09733
			CHANNELS 3 Zrotation Yrotation Xrotation
			JOINT Chest2
			{
				OFFSET 0.04097 1.92183 -0.02751
				CHANNELS 3 Zrotation Yrotation Xrotation
				JOINT lowerneck
				{
					OFFSET 0 0 0
					CHANNELS 3 Zrotation Yrotation Xrotation
					JOINT Neck
					{
						OFFSET 0.18766 3.12816 0.13727
						CHANNELS 3 Zrotation Yrotation Xrotation
						JOINT Head
						{
							OFFSET -0.11178 3.16074 0.02732
							CHANNELS 3 Zrotation Yrotation Xrotation
							End Site
							{
								OFFSET 0.47685 1.04189 0.57898
							}
						}
					}
				}
				JOINT LeftCollar
				{
					OFFSET 0 0 0
					CHANNELS 3 Zrotation Yrotation Xrotation
					JOINT LeftShoulder
					{
						OFFSET 3.49325 0.99827 -0.10681
CHANNELS 3 Zrotation Xrotation Yrotation
						JOINT LeftElbow
						{
OFFSET 0 -5.128420 0.000000
CHANNELS 3 Zrotation Xrotation Yrotation
							JOINT LeftWrist
							{
OFFSET 0 -3.473960 0.000000
CHANNELS 3 Zrotation Xrotation Yrotation
								JOINT lhand
								{
									OFFSET 0 0 0
CHANNELS 3 Zrotation Xrotation Yrotation
									JOINT LFingers
									{
OFFSET 0 -0.728610 0.000000
CHANNELS 3 Zrotation Xrotation Yrotation
										End Site
										{
OFFSET 0 -0.587420 0.000000
										}
									}
								}
								JOINT LThumb
								{
OFFSET 0 0.000000 0.000000
CHANNELS 3 Zrotation Xrotation Yrotation
									End Site
									{
OFFSET 0 -0.596390 0.596390
									}
								}
							}
						}
					}
				}
				JOINT RightCollar
				{
					OFFSET 0 0 0
					CHANNELS 3 Zrotation Yrotation Xrotation
					JOINT RightShoulder
					{
						OFFSET -3.23261 1.50670 -0.18692
CHANNELS 3 Zrotation Xrotation Yrotation
						JOINT RightElbow
						{
OFFSET 0 -5.484770 -0.000000
CHANNELS 3 Zrotation Xrotation Yrotation
							JOINT RightWrist
							{
OFFSET 0 -3.478560 0.000000
CHANNELS 3 Zrotation Xrotation Yrotation
								JOINT rhand
								{
									OFFSET 0 0 0
CHANNELS 3 Zrotation Xrotation Yrotation
									JOINT RFingers
									{
OFFSET 0 -0.709970 0.000000
CHANNELS 3 Zrotation Xrotation Yrotation
										End Site
										{
OFFSET 0 -0.572400 0.000000
										}
									}
								}
								JOINT RThumb
								{
OFFSET 0 0.000000 0.000000
CHANNELS 3 Zrotation Xrotation Yrotation
									End Site
									{
OFFSET 0 -0.581140 0.581140
									}
								}
							}
						}
					}
				}
			}
		}
	}
}
MOTION
Frames: 9
Frame Time: 0.008333333333333333
12.969100 18.006300 -7.342600 -5.036600 -56.407000 9.014500 0.000000 0.000000 0.000000 -18.818300 -13.594700 -15.183400 3.509900 11.478000 33.909600 0.959600 5.940200 -21.568400 0.312900 3.595800 9.942200 0.000000 0.000000 0.000000 26.153800 15.733300 -16.773500 -4.228300 -12.458200 37.372700 -0.990700 -1.278900 -19.308400 -1.633300 -8.056400 22.885600 2.415000 -0.220600 3.394600 3.447600 -0.135000 -0.680400 2.202400 -0.091800 -2.602300 -5.026200 -2.743600 -13.950700 -3.040600 -2.196400 32.118800 -0.696700 -2.191600 13.135300 -0.000000 -0.000000 0.000000 -5.834400 2.523800 -4.005600 15.949500 -25.452100 3.624200 13.250200 19.635000 -31.615000 0.000000 0.000000 0.000000 -7.125000 0.000000 0.000000 -21.803900 60.956700 8.713600 -0.000000 -0.000000 0.000000 -2.278100 -0.529500 14.066400 -13.147000 -21.502300 -2.506900 -27.545400 -11.339400 -16.483900 0.000000 0.000000 0.000000 7.125000 0.000000 -0.000000 0.168200 11.523900 0.131200
13.011148 17.996453 -7.298023 -5.524582 -56.914855 9.299626 0.000000 0.000000 0.000000 -18.833446 -13.358437 -15.323908 3.591068 11.595423 34.315435 0.985809 6.025453 -21.860455 0.379598 3.956038 10.953084 0.000000 0.000000 0.000000 26.174738 15.681483 -16.754714 -4.251251 -12.487431 37.478984 -0.998999 -0.802115 -19.194229 -1.616618 -8.016982 22.765844 2.534215 -0.078939 3.647757 3.230995 0.068945 -0.686291 1.901343 0.007001 -2.754278 -4.545171 -2.745779 -14.090261 -3.096461 -2.309674 32.296810 -0.825692 -2.195649 13.227969 0.000000 0.000000 0.000000 -5.461002 2.660320 -4.663116 15.986945 -25.502902 3.640356 13.207830 19.731092 -31.405178 0.000000 0.000000 0.000000 -7.125000 0.000000 0.000000 -21.673687 60.753594 8.553566 0.000000 0.000000 0.000000 -2.033728 -0.655386 13.965332 -13.011115 -21.303502 -2.457305 -27.470090 -11.067353 -16.440612 0.000000 0.000000 0.000000 7.125000 0.000000 0.000000 0.213596 11.583454 0.166311
13.041363 17.986845 -7.215521 -5.666234 -57.314789 9.451678 0.000000 0.000000 0.000000 -19.169372 -13.467706 -15.384374 3.656651 11.688912 34.640239 0.984807 6.519312 -22.188338 0.418086 4.150113 11.499426 0.000000 0.000000 0.000000 25.881981 15.721256 -16.836225 -4.276067 -12.518967 37.593515 -0.998441 -0.590245 -19.107890 -1.504953 -7.748239 21.951944 2.268834 -0.009373 3.654831 3.220780 0.150381 -0.686195 2.034749 0.052138 -2.759924 -4.300078 -2.572847 -14.082012 -3.303679 -2.070101 32.651966 -0.922817 -2.101754 13.369452 0.000000 0.000000 0.000000 -5.548285 2.668154 -5.276633 15.917025 -25.407974 3.610271 12.954868 18.949654 -31.539096 0.000000 0.000000 0.000000 -7.125000 0.000000 0.000000 -22.053028 60.815923 8.744673 0.000000 0.000000 0.000000 -2.314152 -0.776003 14.169138 -13.159075 -21.519796 -2.511354 -27.916771 -11.287694 -16.349303 0.000000 0.000000 0.000000 7.125000 0.000000 0.000000 -0.091300 11.614225 -0.071038
13.079701 17.978920 -7.102407 -7.128910 -57.171823 10.709960 0.000000 0.000000 0.000000 -18.675449 -13.583267 -15.638662 3.778939 11.860299 35.239556 1.048866 6.331395 -22.617098 0.466116 4.378954 12.145350 0.000000 0.000000 0.000000 26.390308 15.442237 -16.768363 -4.224111 -12.452854 37.353330 -0.973135 -0.809212 -18.950938 -1.150924 -6.811527 19.158194 2.949706 0.010826 4.135826 3.428398 0.236272 -0.720379 1.864359 0.081078 -3.066663 -4.559033 -2.600824 -14.117179 -3.083081 -2.114819 32.971140 -0.808218 -2.133137 13.523744 0.000000 0.000000 0.000000 -5.890963 2.879833 -5.022547 16.073141 -25.619679 3.677534 13.304046 19.419282 -31.482013 0.000000 0.000000 0.000000 -7.125000 0.000000 0.000000 -21.635594 60.847391 8.586236 0.000000 0.000000 0.000000 -2.738758 -0.684767 14.922273 -13.401289 -21.872344 -2.600916 -27.727555 -11.844011 -16.621405 0.000000 0.000000 0.000000 7.125000 0.000000 0.000000 0.061841 11.343353 0.048528
13.121489 17.931927 -6.962430 -6.633304 -57.793902 10.410198 0.000000 0.000000 0.000000 -19.570069 -12.905837 -15.943644 3.833609 11.935628 35.504723 1.129991 5.943490 -23.050816 0.486322 4.471580 12.407452 0.000000 0.000000 0.000000 25.370712 14.722295 -18.341546 -4.683706 -13.018487 39.437716 -1.040970 0.350178 -19.177082 -1.022423 -6.432409 18.044480 2.579557 0.390850 4.328374 3.297671 0.717672 -0.391721 1.902621 0.329095 -2.843098 -4.692583 -2.780563 -13.891594 -2.720814 -2.472056 32.781690 -0.686945 -2.247086 13.401080 0.000000 0.000000 0.000000 -5.862553 2.541068 -5.222250 16.093953 -25.647842 3.686510 13.647905 19.432121 -31.068470 0.000000 0.000000 0.000000 -7.125000 0.000000 0.000000 -20.932327 60.547783 8.143102 0.000000 0.000000 0.000000 -2.824174 -1.138238 14.206327 -13.705996 -22.312924 -2.715519 -27.593192 -11.448052 -16.494496 0.000000 0.000000 0.000000 7.125000 0.000000 0.000000 0.137570 11.504770 0.107328
13.167738 17.840194 -6.830971 -4.061022 -58.732061 8.403294 0.000000 0.000000 0.000000 -21.535239 -12.180968 -16.613571 3.960566 12.107778 36.114258 1.354884 4.409238 -23.970282 0.975629 6.287956 17.622194 0.000000 0.000000 0.000000 22.802614 15.381477 -23.500525 -6.704598 -15.077263 47.746838 -0.904125 0.460516 -17.823506 -0.913567 -6.088646 17.042278 1.262027 0.370672 5.514229 2.833320 0.646806 -0.164076 2.162412 0.314010 -3.282194 -4.819811 -2.695350 -13.795263 -2.467888 -2.417676 32.909771 -0.558819 -2.211141 13.440439 0.000000 0.000000 0.000000 -5.677426 2.262080 -4.134369 15.891735 -25.373595 3.599439 13.127013 19.267740 -31.455948 0.000000 0.000000 0.000000 -7.125000 0.000000 0.000000 -21.801617 60.780924 8.621326 0.000000 0.000000 0.000000 -2.994548 -1.190359 16.401554 -14.700082 -23.726616 -3.104266 -27.980652 -13.247581 -16.524910 0.000000 0.000000 0.000000 7.125000 0.000000 0.000000 -0.115319 11.409512 -0.090209
13.108979 17.790212 -6.659997 -3.163656 -59.408468 8.000966 0.000000 0.000000 0.000000 -22.587088 -11.616314 -16.792119 4.020988 12.188270 36.401312 1.323646 5.192585 -24.164802 0.819877 5.777589 16.140509 0.000000 0.000000 0.000000 21.418575 13.238203 -32.922494 -9.487568 -17.111353 57.761438 -0.729534 -5.161324 -18.822007 -0.614734 -4.999590 13.911186 1.184511 0.157952 6.855527 2.754061 0.385419 0.082758 2.146442 0.183190 -3.772759 -5.059579 -2.684477 -13.598390 -2.446455 -2.383645 33.081499 -0.505478 -2.233033 13.478294 0.000000 0.000000 0.000000 -5.807345 2.308480 -3.812580 15.823900 -25.281240 3.570400 13.641765 19.237779 -31.386427 0.000000 0.000000 0.000000 -7.125000 0.000000 0.000000 -21.197732 60.840510 8.399713 0.000000 0.000000 0.000000 -3.212470 -1.080789 16.830019 -15.521509 -24.867602 -3.442237 -27.824754 -13.476980 -16.620391 0.000000 0.000000 0.000000 7.125000 0.000000 0.000000 -0.002455 11.329057 -0.001758
12.787171 17.861601 -6.417522 -2.561830 -59.554802 8.195667 0.000000 0.000000 0.000000 -23.496094 -11.372029 -14.597447 3.509465 11.477387 33.907364 1.271480 6.064716 -24.279253 0.443646 4.273702 11.847978 0.000000 0.000000 0.000000 21.642190 10.327569 -38.844659 -7.376218 -15.640188 50.282474 -0.587698 -6.895905 -18.613655 -1.864025 -8.575676 24.477464 0.930951 -0.060641 7.400405 2.890710 0.081685 0.354303 2.463560 0.035531 -3.788733 -4.825771 -2.918350 -13.639230 -2.431184 -2.820091 33.266584 -0.613014 -2.397269 13.566408 0.000000 0.000000 0.000000 -6.139432 2.571919 -4.529720 15.699956 -25.112168 3.517712 13.762237 19.404183 -31.111862 0.000000 0.000000 0.000000 -7.125000 0.000000 0.000000 -20.845676 60.615194 8.140944 0.000000 0.000000 0.000000 -3.357463 -0.647121 16.154032 -15.713837 -25.131103 -3.523559 -28.900582 -14.561472 -14.749518 0.000000 0.000000 0.000000 7.125000 0.000000 0.000000 -0.910968 13.244321 -0.677774
12.221927 17.910583 -6.142666 -1.649969 -59.444294 8.081706 0.000000 0.000000 0.000000 -24.279341 -9.984436 -11.661340 2.905176 10.539857 30.743276 1.264952 6.620861 -24.583028 0.284887 3.432684 9.485905 0.000000 0.000000 0.000000 21.297098 10.950416 -38.394952 -3.475792 -11.427426 33.736166 -0.178698 -8.862643 -15.496379 -2.485168 -9.808506 28.360945 0.810122 -0.348634 7.429689 2.711342 -0.331743 0.784672 2.384370 -0.172831 -3.344122 -4.811082 -3.227393 -13.649847 -1.713598 -3.533058 33.272530 -0.442458 -2.606760 13.591041 0.000000 0.000000 0.000000 -5.474466 2.331525 -5.088475 15.539945 -24.892854 3.450011 13.453182 19.722420 -31.330963 0.000000 0.000000 0.000000 -7.125000 0.000000 0.000000 -21.352308 60.744010 8.414992 0.000000 0.000000 0.000000 -2.349345 -0.826754 13.845716 -15.117172 -24.309025 -3.274012 -29.493610 -14.035669 -16.378234 0.000000 0.000000 0.000000 7.125000 0.000000 0.000000 -1.129529 11.324874 -0.885684
